<svg xmlns="http://www.w3.org/2000/svg" viewBox="0 0 32 32" role="img" aria-label="PlateWise AR">
  <rect width="32" height="32" rx="7" fill="#1f6e47"/>
  <!-- AR corner brackets -->
  <g fill="none" stroke="#c98a2b" stroke-width="1.6" stroke-linecap="round" stroke-linejoin="round">
    <path d="M5 9V6.5a1.5 1.5 0 0 1 1.5-1.5H9"/>
    <path d="M23 5h2.5A1.5 1.5 0 0 1 27 6.5V9"/>
    <path d="M27 23v2.5a1.5 1.5 0 0 1-1.5 1.5H23"/>
    <path d="M9 27H6.5A1.5 1.5 0 0 1 5 25.5V23"/>
  </g>
  <!-- plate -->
  <circle cx="16" cy="16" r="8.4" fill="#faf7ef"/>
  <circle cx="16" cy="16" r="6" fill="none" stroke="#e2d9c5" stroke-width="0.7"/>
  <!-- leaf (matches the app's brand mark) -->
  <g transform="translate(7,5.6) scale(0.75)" fill="none" stroke="#1f6e47" stroke-width="2" stroke-linecap="round" stroke-linejoin="round">
    <path d="M11 20C6 20 4 15 4 11c5 0 7 3 7 7"/>
    <path d="M12 20c0-7 4-12 8-13 0 8-3 13-8 13"/>
  </g>
</svg>
